<svg width="100" height="100" viewBox="0 0 100 100" fill="none" xmlns="http://www.w3.org/2000/svg">
<path d="M83.3333 91.6667L67.25 85.2083C70.1667 78.8333 72.25 72.25 73.5417 65.5417L83.3333 91.6667ZM32.75 85.2083L16.6667 91.6667L26.4583 65.5417C27.75 72.25 29.8333 78.8333 32.75 85.2083ZM50 8.33334C50 8.33334 70.8333 16.6667 70.8333 50C70.8333 62.9167 67.7083 73.9583 63.875 82.625C62.5 85.625 59.5417 87.5 56.25 87.5H43.75C40.4583 87.5 37.5 85.625 36.125 82.625C32.3333 73.9583 29.1667 62.9167 29.1667 50C29.1667 16.6667 50 8.33334 50 8.33334ZM50 50C54.5833 50 58.3333 46.25 58.3333 41.6667C58.3333 37.0833 54.5833 33.3333 50 33.3333C45.4167 33.3333 41.6667 37.0833 41.6667 41.6667C41.6667 46.25 45.4167 50 50 50Z" fill="white"/>
</svg>
